<?xml version="1.0" encoding="UTF-8"?><svg version="1.1" viewBox="0 0 100 112" xmlns="http://www.w3.org/2000/svg" xmlns:xlink="http://www.w3.org/1999/xlink"><!--Generated by IJSVG (https://github.com/curthard89/IJSVG)--><path d="M78.2043,26.4657c15.621,15.621 15.621,40.9476 0,56.5685c-15.621,15.621 -40.9476,15.621 -56.5685,0c-15.621,-15.621 -15.621,-40.9476 -7.10543e-15,-56.5685c15.621,-15.621 40.9476,-15.621 56.5685,-7.10543e-15" fill="#F0F2FF"></path><path fill="#FFF" stroke="#4550E5" stroke-linejoin="round" stroke-width="1" d="M70.42,71.25h-41l3.7272e-08,1.60441e-11c-1.10457,-0.000475395 -1.99961,-0.896291 -1.99914,-2.00086c0.00012955,-0.301007 0.0682008,-0.598103 0.199139,-0.869139l20.5,-36l1.50686e-08,-3.11128e-08c0.481471,-0.994113 1.67767,-1.40969 2.67178,-0.92822c0.405026,0.196163 0.732057,0.523194 0.92822,0.92822l20.5,36l5.72227e-08,1.18448e-07c0.480488,0.994588 0.0637272,2.19037 -0.930861,2.67086c-0.271036,0.130938 -0.568132,0.199009 -0.869139,0.199139Zm-37.8,-4h34.6l-17.3,-29.43Z"></path><path d="M17.42,83.25c-1.10456,0 -2,-0.89544 -2,-2v-20c0,-1.10456 0.89544,-2 2,-2h23c1.10456,0 2,0.89544 2,2v20c0,1.10456 -0.89544,2 -2,2Z" fill="#D6DAFF"></path><path fill="none" stroke="#4550E5" stroke-linecap="round" stroke-linejoin="round" stroke-width="1" d="M40.42,83.25h-23h-8.74228e-08c-1.10457,-4.82823e-08 -2,-0.895431 -2,-2c0,0 0,0 0,0v-6h27v6v8.74228e-08c0,1.10457 -0.895431,2 -2,2c-2.70922e-08,0 -6.03306e-08,0 -8.74228e-08,0Z"></path><g stroke-linecap="round" stroke-width="1" stroke="#4550E5" fill="none" stroke-linejoin="round"><path d="M18.42,79.25h6"></path><path d="M15.42,67.25h27v8h-27Z"></path><path d="M18.42,71.25h6"></path><path fill="#D6DAFF" d="M42.42,67.25h-27v-6l2.13163e-14,3.01992e-07c-1.66785e-07,-1.10457 0.89543,-2 2,-2h23h-8.74228e-08c1.10457,-4.82823e-08 2,0.89543 2,2Z"></path><path d="M18.42,63.25h6"></path><path fill="#FFF" d="M39.9807,62.1893c0.585786,0.585786 0.585786,1.53553 0,2.12132c-0.585786,0.585786 -1.53553,0.585786 -2.12132,0c-0.585786,-0.585786 -0.585786,-1.53553 0,-2.12132c0.585786,-0.585786 1.53553,-0.585786 2.12132,0"></path><path fill="#FFF" d="M34.9807,62.1893c0.585786,0.585786 0.585786,1.53553 0,2.12132c-0.585786,0.585786 -1.53553,0.585786 -2.12132,0c-0.585786,-0.585786 -0.585786,-1.53553 0,-2.12132c0.585786,-0.585786 1.53553,-0.585786 2.12132,0"></path><path fill="#FFF" d="M39.9807,70.1893c0.585786,0.585786 0.585786,1.53553 0,2.12132c-0.585786,0.585786 -1.53553,0.585786 -2.12132,0c-0.585786,-0.585786 -0.585786,-1.53553 0,-2.12132c0.585786,-0.585786 1.53553,-0.585786 2.12132,0"></path><path fill="#FFF" d="M34.9807,70.1893c0.585786,0.585786 0.585786,1.53553 0,2.12132c-0.585786,0.585786 -1.53553,0.585786 -2.12132,0c-0.585786,-0.585786 -0.585786,-1.53553 0,-2.12132c0.585786,-0.585786 1.53553,-0.585786 2.12132,0"></path><path fill="#FFF" d="M39.9807,78.1893c0.585786,0.585786 0.585786,1.53553 0,2.12132c-0.585786,0.585786 -1.53553,0.585786 -2.12132,0c-0.585786,-0.585786 -0.585786,-1.53553 0,-2.12132c0.585786,-0.585786 1.53553,-0.585786 2.12132,0"></path><path fill="#FFF" d="M34.9807,78.1893c0.585786,0.585786 0.585786,1.53553 0,2.12132c-0.585786,0.585786 -1.53553,0.585786 -2.12132,0c-0.585786,-0.585786 -0.585786,-1.53553 0,-2.12132c0.585786,-0.585786 1.53553,-0.585786 2.12132,0"></path></g><path fill="#D6DAFF" d="M59.42,83.25c-1.10456,0 -2,-0.89544 -2,-2v-20c0,-1.10456 0.89544,-2 2,-2h23c1.10456,0 2,0.89544 2,2v20c0,1.10456 -0.89544,2 -2,2Z"></path><g stroke-linecap="round" stroke-width="1" stroke="#4550E5" fill="none" stroke-linejoin="round"><path d="M82.42,83.25h-23h-8.74228e-08c-1.10457,-4.82823e-08 -2,-0.895431 -2,-2c0,0 0,0 0,0v-6h27v6v8.74228e-08c0,1.10457 -0.895431,2 -2,2c-2.70922e-08,0 -6.03306e-08,0 -8.74228e-08,0Z"></path><path d="M60.42,79.25h6"></path><path d="M57.42,67.25h27v8h-27Z"></path><path d="M60.42,71.25h6"></path><path d="M84.42,67.25h-27v-6l2.13163e-14,3.01992e-07c-1.66785e-07,-1.10457 0.89543,-2 2,-2h23h-8.74228e-08c1.10457,-4.82823e-08 2,0.89543 2,2Z"></path><path d="M60.42,63.25h6"></path><path fill="#FFF" d="M81.9807,62.1893c0.585786,0.585786 0.585786,1.53553 0,2.12132c-0.585786,0.585786 -1.53553,0.585786 -2.12132,0c-0.585786,-0.585786 -0.585786,-1.53553 0,-2.12132c0.585786,-0.585786 1.53553,-0.585786 2.12132,0"></path><path fill="#FFF" d="M76.9807,62.1893c0.585786,0.585786 0.585786,1.53553 0,2.12132c-0.585786,0.585786 -1.53553,0.585786 -2.12132,0c-0.585786,-0.585786 -0.585786,-1.53553 0,-2.12132c0.585786,-0.585786 1.53553,-0.585786 2.12132,0"></path><path fill="#FFF" d="M81.9807,70.1893c0.585786,0.585786 0.585786,1.53553 0,2.12132c-0.585786,0.585786 -1.53553,0.585786 -2.12132,0c-0.585786,-0.585786 -0.585786,-1.53553 0,-2.12132c0.585786,-0.585786 1.53553,-0.585786 2.12132,0"></path><path fill="#FFF" d="M76.9807,70.1893c0.585786,0.585786 0.585786,1.53553 0,2.12132c-0.585786,0.585786 -1.53553,0.585786 -2.12132,0c-0.585786,-0.585786 -0.585786,-1.53553 0,-2.12132c0.585786,-0.585786 1.53553,-0.585786 2.12132,0"></path><path fill="#FFF" d="M81.9807,78.1893c0.585786,0.585786 0.585786,1.53553 0,2.12132c-0.585786,0.585786 -1.53553,0.585786 -2.12132,0c-0.585786,-0.585786 -0.585786,-1.53553 0,-2.12132c0.585786,-0.585786 1.53553,-0.585786 2.12132,0"></path><path fill="#FFF" d="M76.9807,78.1893c0.585786,0.585786 0.585786,1.53553 0,2.12132c-0.585786,0.585786 -1.53553,0.585786 -2.12132,0c-0.585786,-0.585786 -0.585786,-1.53553 0,-2.12132c0.585786,-0.585786 1.53553,-0.585786 2.12132,0"></path></g><path fill="#D6DAFF" d="M38.42,45.25c-1.10456,0 -2,-0.89544 -2,-2v-20c0,-1.10456 0.89544,-2 2,-2h23c1.10456,0 2,0.89544 2,2v20c0,1.10456 -0.89544,2 -2,2Z"></path><g stroke-linecap="round" stroke-width="1" stroke="#4550E5" fill="none" stroke-linejoin="round"><path d="M61.42,45.25h-23h-8.74228e-08c-1.10457,-4.82823e-08 -2,-0.895431 -2,-2c0,0 0,-7.10543e-15 0,-7.10543e-15v-6h27v6v8.74228e-08c0,1.10457 -0.895431,2 -2,2c-2.70922e-08,0 -6.03306e-08,0 -8.74228e-08,0Z"></path><path d="M39.42,41.25h6"></path><path d="M36.42,29.25h27v8h-27Z"></path><path d="M39.42,33.25h6"></path><path d="M63.42,29.25h-27v-6l2.13163e-14,3.01992e-07c-1.66785e-07,-1.10457 0.89543,-2 2,-2h23l-8.74228e-08,3.55271e-15c1.10457,-4.82823e-08 2,0.89543 2,2Z"></path><path d="M39.42,25.25h6"></path><path fill="#FFF" d="M60.9807,24.1893c0.585786,0.585786 0.585786,1.53553 0,2.12132c-0.585786,0.585786 -1.53553,0.585786 -2.12132,0c-0.585786,-0.585786 -0.585786,-1.53553 0,-2.12132c0.585786,-0.585786 1.53553,-0.585786 2.12132,0"></path><path fill="#FFF" d="M55.9807,24.1893c0.585786,0.585786 0.585786,1.53553 0,2.12132c-0.585786,0.585786 -1.53553,0.585786 -2.12132,0c-0.585786,-0.585786 -0.585786,-1.53553 0,-2.12132c0.585786,-0.585786 1.53553,-0.585786 2.12132,0"></path><path fill="#FFF" d="M60.9807,32.1893c0.585786,0.585786 0.585786,1.53553 0,2.12132c-0.585786,0.585786 -1.53553,0.585786 -2.12132,0c-0.585786,-0.585786 -0.585786,-1.53553 0,-2.12132c0.585786,-0.585786 1.53553,-0.585786 2.12132,0"></path><path fill="#FFF" d="M55.9807,32.1893c0.585786,0.585786 0.585786,1.53553 0,2.12132c-0.585786,0.585786 -1.53553,0.585786 -2.12132,0c-0.585786,-0.585786 -0.585786,-1.53553 0,-2.12132c0.585786,-0.585786 1.53553,-0.585786 2.12132,0"></path><path fill="#FFF" d="M60.9807,40.1893c0.585786,0.585786 0.585786,1.53553 0,2.12132c-0.585786,0.585786 -1.53553,0.585786 -2.12132,0c-0.585786,-0.585786 -0.585786,-1.53553 0,-2.12132c0.585786,-0.585786 1.53553,-0.585786 2.12132,0"></path><path fill="#FFF" d="M55.9807,40.1893c0.585786,0.585786 0.585786,1.53553 0,2.12132c-0.585786,0.585786 -1.53553,0.585786 -2.12132,0c-0.585786,-0.585786 -0.585786,-1.53553 0,-2.12132c0.585786,-0.585786 1.53553,-0.585786 2.12132,0"></path></g></svg>