<?xml version="1.0" encoding="UTF-8"?><svg version="1.1" viewBox="0 0 100 112" xmlns="http://www.w3.org/2000/svg" xmlns:xlink="http://www.w3.org/1999/xlink"><!--Generated by IJSVG (https://github.com/curthard89/IJSVG)--><defs><path d="M68.59,83.89l-1.26986e-08,3.79742e-08c-0.213683,0.639006 -0.904925,0.983798 -1.54393,0.770115c-0.56984,-0.190554 -0.916093,-0.767643 -0.816069,-1.36012l1.86,-9.61l3.35,0.83Z" id="c"></path><path d="M55,35.51l-7.28524e-09,-1.26184e-08c0.178633,0.309401 0.178633,0.690599 1.45705e-08,1l3.66192e-10,-6.69274e-10c-0.175897,0.32148 -0.513546,0.521 -0.88,0.52h-9.29l1.41264e-08,-3.8554e-11c-0.366454,0.00100024 -0.704103,-0.19852 -0.88,-0.52l2.31785e-08,4.01463e-08c-0.178633,-0.309401 -0.178633,-0.690599 -4.6357e-08,-1l3.21,-5l2.13747e-08,-3.33184e-08c0.185506,-0.289163 0.50646,-0.462856 0.85,-0.46h2.99l4.7048e-08,-3.91115e-10c0.343539,-0.00285586 0.664494,0.170837 0.85,0.46Z" id="a"></path><path d="M29.33,83.89l-2.1126e-08,-6.31759e-08c0.213683,0.639006 0.904925,0.983799 1.54393,0.770115c0.56984,-0.190554 0.916093,-0.767643 0.816069,-1.36012l-1.85,-9.61l-3.35,0.83Z" id="h"></path><path d="M56.44,62.9h-15.53l1.73,-10.35l-1.38612e-08,-1.57327e-06c-0.00554642,-0.62958 0.500333,-1.14445 1.12991,-1.15c0.00669604,-5.89901e-05 0.0133925,-5.89809e-05 0.0200885,2.77245e-08h14.37l6.48526e-08,-5.71418e-10c0.62958,-0.00554725 1.14445,0.500331 1.15,1.12991c5.8999e-05,0.00669604 5.89986e-05,0.0133925 -1.14284e-09,0.0200885l-1.72,9.2l7.89511e-09,-9.19765e-07c-0.00543215,0.632864 -0.517136,1.14457 -1.15,1.15Z" id="j"></path><path d="M19.61,50.25h7.52l-1.74846e-07,7.10543e-15c2.20914,-9.65645e-08 4,1.79086 4,4v20.75h-13.52h-8.74228e-08c-1.10457,-4.82823e-08 -2,-0.895431 -2,-2c0,0 0,0 0,0v-18.75l4.44089e-14,6.03983e-07c-3.33571e-07,-2.20914 1.79086,-4 4,-4Z" id="i"></path><path d="M61.5,33.31c0,0 -0.11,1.75 0.69,2.08c0,0 0.69,-2.08 2.08,-2.08c0,1.39 1.59,2 2.07,2.08l2.72022e-08,-4.94922e-08c0.481858,-0.876701 1.2033,-1.59814 2.08,-2.08l2.35769e-07,4.71135e-07c0.545414,1.0899 1.57124,1.86019 2.77,2.08l-7.91805e-08,9.77285e-07c0.0716649,-0.884527 0.59289,-1.67014 1.38,-2.08c0,0 2.08,3.46 4.85,3.46v-1.38c0,-4.91 -3.46,-9 -8.31,-9c-3.82,0.01 -7.61,3.1 -7.61,6.92Z" id="f"></path><path d="M68.79,50.25h13.52v20.75v0c0,2.20914 -1.79086,4 -4,4h-7.52h-1.74846e-07c-2.20914,-9.65645e-08 -4,-1.79086 -4,-4c0,0 0,-1.42109e-14 0,-1.42109e-14v-18.75l2.84217e-14,3.01992e-07c-1.66785e-07,-1.10457 0.89543,-2 2,-2Z" id="d"></path><path d="M19.14,83.89l-1.26986e-08,3.79742e-08c-0.213683,0.639006 -0.904925,0.983798 -1.54393,0.770115c-0.56984,-0.190554 -0.916093,-0.767643 -0.816069,-1.36012l1.86,-9.61l3.35,0.83Z" id="g"></path><path d="M76,60.63c2,-0.55 3.63,-2.25 3.63,-6.07c0,-4.13 -5,-7.19 -9.38,-7.19l-4.27497e-07,1.42109e-14c-5.40134,2.361e-07 -9.78,4.37866 -9.78,9.78c0,0 0,7.10543e-15 0,7.10543e-15v1.15l2.88,2.87v6.33h12.65v-6.87Z" id="e"></path><path d="M36.89,34.15l3.18993e-07,-8.72009e-06c0.151018,-4.12833 -3.07323,-7.59742 -7.20156,-7.74844c-4.12833,-0.151018 -7.59742,3.07323 -7.74844,7.20156c-0.00666631,0.182235 -0.00666624,0.364653 1.93038e-07,0.546888v2.3l2.38975e-07,-5.83024e-08c1.8221,-0.444537 3.32723,-1.72352 4.06,-3.45c3.18,2.17 7.44,1.72 10.89,1.15Z" id="l"></path><path d="M78.78,83.89l-2.1126e-08,-6.31759e-08c0.213683,0.639006 0.904925,0.983799 1.54393,0.770115c0.56984,-0.190554 0.916093,-0.767643 0.816069,-1.36012l-1.85,-9.61l-3.35,0.83Z" id="b"></path><path d="M17.91,58.3l1.15033e-07,3.80174e-06c-0.18257,-6.03371 4.56072,-11.073 10.5944,-11.2556c6.03371,-0.18257 11.073,4.56072 11.2556,10.5944c0.00666674,0.220328 0.00666682,0.440807 2.30065e-07,0.661135v1.7h-2.87v7.5h-14.95v-7.5h-4Z" id="k"></path><path d="M44.94,68.07h3.45v16.68h-3.45Z" id="m"></path></defs><path d="M90,56.05l1.75431e-07,0.00374627c-1.42109e-14,-22.0914 -17.9086,-40 -40,-40c-22.0914,7.10543e-15 -40,17.9086 -40,40c0,5.68809 1.21314,11.3108 3.55846,16.4928h72.8815l4.26825e-07,-9.41766e-07c2.34872,-5.18233 3.56251,-10.8069 3.56,-16.4966Z" fill="#F0F2FF"></path><path fill="none" stroke="#4550E5" stroke-linecap="round" stroke-linejoin="round" stroke-width="1" d="M11,72.55h78"></path><g stroke-linecap="round" stroke-width="1" stroke="#4550E5" fill="none" stroke-linejoin="round"><path d="M6.5,72.55h2.5"></path><path d="M91,72.55h2.5"></path></g><path fill="#F0F2FF" d="M78.5112,84.0967c5.83834,0.675607 5.83834,1.77098 0,2.44659c-5.83834,0.675607 -15.3042,0.675607 -21.1425,0c-5.83834,-0.675607 -5.83834,-1.77098 0,-2.44659c5.83834,-0.675607 15.3042,-0.675607 21.1425,0"></path><path d="M41.7112,84.0967c5.83834,0.675607 5.83834,1.77098 0,2.44659c-5.83834,0.675607 -15.3042,0.675607 -21.1425,0c-5.83834,-0.675607 -5.83834,-1.77098 -3.55271e-15,-2.44659c5.83834,-0.675607 15.3042,-0.675607 21.1425,0" fill="#F0F2FF"></path><use fill="#FFF" xlink:href="#a"></use><use xlink:href="#b" fill="#FFF"></use><use fill="none" stroke="#4550E5" stroke-linecap="round" stroke-linejoin="round" stroke-width="1" xlink:href="#b"></use><use xlink:href="#c" fill="#FFF"></use><use fill="none" stroke="#4550E5" stroke-linecap="round" stroke-linejoin="round" stroke-width="1" xlink:href="#c"></use><g transform="matrix(1,0,0,1,149.1,125.22)"><use fill="#FFF" transform="matrix(-1,1.22465e-16,-1.22465e-16,-1,0,0)" xlink:href="#d"></use><use fill="none" stroke="#4550E5" stroke-linecap="round" stroke-linejoin="round" stroke-width="1" transform="matrix(-1,1.22465e-16,-1.22465e-16,-1,0,0)" xlink:href="#d"></use></g><g transform="matrix(1,0,0,1,142.77,147.07)"><path fill="#FFF" stroke="#4550E5" stroke-linecap="round" stroke-linejoin="round" stroke-width="1" d="M62.46,72.1h19.85v2.9h-21.85v-0.9l2.13163e-14,3.01992e-07c-1.66785e-07,-1.10457 0.89543,-2 2,-2Z" transform="matrix(-1,1.22465e-16,-1.22465e-16,-1,0,0)"></path></g><g stroke-linecap="round" stroke-width="1" stroke="#4550E5" fill="#FFF" stroke-linejoin="round"><path d="M64.49,58l1.06297e-11,1.02041e-05c0,2.70229 -2.18772,4.89448 -4.89001,4.89999l-1.76915e-07,9.51559e-11c-2.61635,0.00140715 -4.87293,-1.83729 -5.4,-4.4l-1.71,-7l-7.50683e-08,-3.72323e-07c-0.105488,-0.5232 0.00252371,-1.06686 0.3,-1.51l2.24777e-08,-3.3547e-08c0.296468,-0.442465 0.757175,-0.748403 1.28,-0.85l-1.48756e-07,1.65385e-08c0.132924,-0.0147782 0.267076,-0.0147782 0.4,-3.30769e-08l-1.12192e-07,2.15002e-09c0.968616,-0.0185624 1.81126,0.659768 2,1.61l1.7,7l1.00981e-08,4.91151e-08c0.137614,0.669323 0.726677,1.14976 1.41,1.15l3.18995e-08,1.09594e-09c0.485724,0.0166876 0.893009,-0.363541 0.909697,-0.849265c0.00012291,-0.00357753 0.000223991,-0.00715579 0.000303236,-0.0107346l1.42109e-14,-1.82782e-07c1.66785e-07,-1.10457 0.895431,-2 2,-2c1.10457,1.66785e-07 2,0.895431 2,2Z"></path><path fill="#D6DAFF" d="M59.31,81.3l1.35,-10.78l3.84704e-08,-2.98305e-07c0.221646,-1.71867 1.6871,-3.00416 3.42,-3h7.92v4.6h-6.36l-2.3,9.2Z"></path></g><use fill="#FFF" xlink:href="#e"></use><g stroke-linecap="round" stroke-width="1" stroke="#4550E5" fill="none" stroke-linejoin="round"><use xlink:href="#e"></use><path d="M76,55.42c0,0.69 -1.08,1.24 -1.73,1.38v4.06l1.22414e-07,6.24134e-10c0.585166,0.0029835 1.16774,-0.0778365 1.73,-0.24"></path><path fill="#FFF" d="M55.29,84.75l-1.88609e-08,-6.48077e-06c-0.00552732,-1.89985 1.53013,-3.44447 3.42998,-3.44999c0.00667637,-1.94239e-05 0.0133528,-1.94113e-05 0.0200292,3.7734e-08h4.6v3.45Z"></path><path fill="#FFF" d="M59.31,84.75l4.26326e-14,5.20936e-07c-2.87705e-07,-1.90538 1.54462,-3.45 3.45,-3.45c0,0 7.10543e-15,0 7.10543e-15,0h4.6v2.3v0c0,0.635127 -0.514873,1.15 -1.15,1.15c0,0 -1.42109e-14,0 -1.42109e-14,0Z"></path><path fill="#FFF" d="M65.41,48.65l5.48499e-07,-3.13127e-07c1.47113,-0.839839 3.13603,-1.28105 4.83,-1.28l4.52434e-07,1.05876e-09c0.983118,0.00230065 1.96044,0.150585 2.9,0.44l-4.63,3.59Z"></path><path fill="#FFF" d="M76.24,49.43l-6,3.69l-1.73,-1.72l4.63,-3.59l-5.60158e-07,-1.75376e-07c1.12154,0.351135 2.17135,0.899748 3.1,1.62Z"></path><path fill="#FFF" d="M65.41,48.64v0l3.1,2.75l-1,1l4.8729e-09,-4.88394e-09c-0.404077,0.404992 -1.04574,0.447769 -1.5,0.1l-2.85,-2.09l-1.24776e-07,1.29874e-07c0.663011,-0.6901 1.42056,-1.28267 2.25,-1.76Z"></path><path d="M63.34,61.17v-5.75"></path><path d="M68.51,51.4v16.1"></path><path fill="#FFF" d="M79.05,46.22l4.1479e-08,1.93339e-11c0.408691,0.000190512 0.740154,-0.330964 0.740345,-0.739655c7.79192e-05,-0.167154 -0.0564384,-0.32941 -0.160345,-0.460345l-3.0346e-07,-3.55191e-07c-1.42878,-1.67235 -2.21262,-3.80041 -2.21,-6v-0.47l5.27562e-08,-1.82464e-06c-0.0270585,0.935871 -0.793736,1.68039 -1.73,1.68v0l1.83273e-08,-5.86479e-08c-0.566673,1.81337 -1.85397,3.31401 -3.56,4.15l3.71942e-07,2.79591e-07c1.58873,1.19425 3.52246,1.84 5.51,1.84Z"></path><path fill="#FFF" d="M69.11,28.47l-2.29255e-07,-9.93889e-10c3.81009,0.0165178 6.89004,3.10987 6.89,6.92v1.38c2,0 1.84,3.46 -0.34,3.46v0l1.22791e-07,-3.95732e-07c-1.12932,3.63958 -4.99529,5.67455 -8.63487,4.54523c-2.89618,-0.898652 -4.8662,-3.58285 -4.85513,-6.61523v-2.77l-6.02896e-11,-2.78569e-05c-5.77077e-07,-3.82181 3.09819,-6.92 6.92,-6.92c0.00667631,-1.0081e-09 0.0133526,9.65979e-06 0.0200289,2.89824e-05Z"></path></g><path fill="#D6DAFF" d="M71.19,39.72l-1.26947e-09,-8.75846e-08c0.0055228,0.381036 0.318891,0.68545 0.699927,0.679928c0.381036,-0.0055228 0.68545,-0.318891 0.679928,-0.699927c-0.00546588,-0.377109 -0.312706,-0.67996 -0.689855,-0.68l-3.69941e-08,-3.89377e-12c-0.381076,-4.00507e-05 -0.690032,0.308851 -0.690073,0.689927c-3.52885e-07,0.00335765 2.38025e-05,0.00671526 7.24644e-05,0.0100726Z"></path><g stroke-linecap="round" stroke-width="1" stroke="#4550E5" fill="none" stroke-linejoin="round"><path d="M69.46,40.86l3.07258e-08,-2.66575e-08c-0.836262,0.725536 -2.04025,0.841922 -3,0.29l-2.45312e-07,-1.5029e-07c-0.142896,-0.0875447 -0.27986,-0.184422 -0.41,-0.29"></path><path d="M71.2,37.06l-1.66189e-08,-1.6064e-08c-0.387597,-0.374654 -1.0024,-0.374654 -1.39,3.21279e-08"></path><path d="M65.66,37.06l-2.28387e-09,-2.17719e-09c-0.386298,-0.368254 -0.993702,-0.368254 -1.38,4.35437e-09"></path></g><use fill="#FFF" xlink:href="#f"></use><g stroke-linecap="round" stroke-width="1" stroke="#4550E5" fill="none" stroke-linejoin="round"><use xlink:href="#f"></use><path fill="#FFF" d="M66.79,43.92c0,1.59 -0.58,3.45 -2.88,3.45c-2,0 -2.69,-1.4 -2.84,-2.81l-1.86328e-08,-1.5054e-07c-0.0386689,-0.312418 0.183249,-0.597031 0.495667,-0.6357c0.0246574,-0.00305192 0.0494881,-0.0044884 0.0743329,-0.00430023Z"></path><path d="M68.51,45.65l5.68559e-08,-9.78384e-06c0.00551744,-0.949914 -0.760067,-1.72444 -1.70998,-1.72996c-0.00334299,-1.94173e-05 -0.00668603,-2.90882e-05 -0.0100291,-2.90127e-05"></path><path fill="#FFF" d="M74,56.86l5.51599e-08,3.83068e-10c-0.791382,-0.00549581 -1.43002,-0.648599 -1.43,-1.44v-4.79l1.72062e-07,0.000445665c-0.000341835,-0.990061 -0.26988,-1.9614 -0.77977,-2.81006l-1.23,-2.06l9.32689e-08,1.61547e-07c-0.356899,-0.618168 -1.0162,-0.999268 -1.73,-1l8.41422e-08,-1.5925e-09c-0.353091,0.00668275 -0.698116,0.10674 -1,0.29l-1.91252e-07,1.13233e-07c-0.950472,0.56274 -1.26479,1.78944 -0.702052,2.73991c0.00397818,0.00671918 0.00799567,0.013415 0.0120523,0.0200871l1.24,2.06l-3.18837e-08,-5.46993e-08c0.130939,0.224638 0.199952,0.479986 0.2,0.74v4.79l-6.24575e-08,3.47528e-05c-0.00539144,3.00524 2.41469,5.45201 5.4198,5.47958h0.29v-4.08l-7.29381e-08,2.44713e-08c-0.0939338,0.0315154 -0.191306,0.0516591 -0.290034,0.0599999Z"></path><path fill="#D6DAFF" d="M63.34,81.3l1.34,-10.78l-8.86698e-08,6.74015e-07c0.226304,-1.72023 1.69496,-3.00476 3.43,-3h7.89v2.3h-1.42109e-14c0,1.27025 -1.02975,2.3 -2.3,2.3h-2.24l1.17184e-08,3.59393e-11c-1.0555,-0.0032386 -1.9765,0.715384 -2.23,1.74l-1.87,7.44Z"></path></g><use fill="#FFF" xlink:href="#g"></use><use xlink:href="#g" stroke-linecap="round" stroke-width="1" stroke="#4550E5" fill="none" stroke-linejoin="round"></use><use fill="#FFF" xlink:href="#h"></use><use xlink:href="#h" stroke-linecap="round" stroke-width="1" stroke="#4550E5" fill="none" stroke-linejoin="round"></use><use fill="#FFF" xlink:href="#i"></use><g stroke-linecap="round" stroke-width="1" stroke="#4550E5" fill="none" stroke-linejoin="round"><use xlink:href="#i"></use><path fill="#FFF" d="M15.61,72.1h21.85v2.9h-19.85h-8.74228e-08c-1.10457,-4.82823e-08 -2,-0.895431 -2,-2c0,0 0,0 0,0v-0.9Z"></path><path fill="#FFF" d="M45.51,61.17h-4.89l-3.92534e-08,-4.48651e-10c-0.472709,-0.00540294 -0.854597,-0.387291 -0.86,-0.86l-1.74316e-08,1.71026e-07c0.0098272,-0.0964169 0.00982721,-0.193583 3.48632e-08,-0.29h-4l3.06834e-08,-3.01042e-07c-0.00982721,0.0964169 -0.00982723,0.193583 -6.13667e-08,0.29l-1.92062e-07,-9.49481e-05c0.00542436,2.6945 2.18542,4.87905 4.87991,4.89009h4.89h-8.74228e-08c1.10457,4.82823e-08 2,-0.89543 2,-2c4.82823e-08,-1.10457 -0.89543,-2 -2,-2Z"></path></g><use fill="#FFF" xlink:href="#j"></use><g stroke-linecap="round" stroke-width="1" stroke="#4550E5" fill="#D6DAFF" stroke-linejoin="round"><path d="M42.64,81.3h-5.18l-1.37,-7.3l-5.34771e-08,-2.80997e-07c-0.206522,-1.08517 -1.15535,-1.87027 -2.26,-1.87h-5v-4.63h8.57l-1.52395e-08,-4.59011e-12c1.6867,0.000507429 3.12726,1.21716 3.41,2.88Z"></path><path fill="#FFF" d="M29.41,29l-3.01609e-07,1.42109e-14c-3.81076,1.66574e-07 -6.9,3.08924 -6.9,6.9c0,0 0,0 0,0v0.92l-1.1962e-07,2.29472e-08c-0.764776,0.146711 -1.26582,0.885617 -1.11911,1.65039c0.119261,0.621684 0.63822,1.08769 1.26911,1.13961l6.19235e-08,2.92142e-07c0.790188,3.72794 4.45285,6.10946 8.18079,5.31927c3.1809,-0.674236 5.45942,-3.47771 5.46921,-6.72927v-2.3v-1.29672e-08c0,-3.81076 -3.08924,-6.9 -6.9,-6.9c0,0 -1.35256e-07,0 -1.35256e-07,0Z"></path></g><use fill="#FFF" xlink:href="#k"></use><use xlink:href="#k" stroke-linecap="round" stroke-width="1" stroke="#4550E5" fill="none" stroke-linejoin="round"></use><path fill="#4550E5" d="M28.55,35.87l-3.67995e-08,-4.20606e-10c-0.480456,-0.00549145 -0.874395,0.379544 -0.879886,0.86c-0.00549145,0.480456 0.379544,0.874395 0.86,0.879886c0.480456,0.00549145 0.874395,-0.379544 0.879886,-0.86c7.57622e-05,-0.00662857 7.57619e-05,-0.0132578 -8.68312e-10,-0.0198864v0c0,-0.474965 -0.385035,-0.86 -0.86,-0.86Z"></path><path d="M33.15,35.87l-3.67995e-08,-4.20606e-10c-0.480456,-0.00549145 -0.874395,0.379544 -0.879886,0.86c-0.00549145,0.480456 0.379544,0.874395 0.86,0.879886c0.480456,0.00549145 0.874395,-0.379544 0.879886,-0.86c7.57622e-05,-0.00662857 7.57619e-05,-0.0132578 -8.68312e-10,-0.0198864v0c0,-0.474965 -0.385035,-0.86 -0.86,-0.86Z" fill="#4550E5"></path><path fill="#D6DAFF" d="M26.8581,38.4219c0.335851,0.335851 0.335851,0.880373 0,1.21622c-0.335851,0.335851 -0.880373,0.335851 -1.21622,0c-0.335851,-0.335851 -0.335851,-0.880373 0,-1.21622c0.335851,-0.335851 0.880373,-0.335851 1.21622,0"></path><path d="M28.84,41.1l-2.4194e-08,-1.62031e-08c1.04377,0.699029 2.40623,0.699029 3.45,3.24061e-08" stroke-linecap="round" stroke-width="1" stroke="#4550E5" fill="none" stroke-linejoin="round"></path><use fill="#FFF" xlink:href="#l"></use><g stroke-linecap="round" stroke-width="1" stroke="#4550E5" fill="none" stroke-linejoin="round"><use xlink:href="#l"></use><path d="M24.81,31.85l8.31891e-08,1.26312e-07c0.307113,0.466311 0.713465,0.859005 1.19,1.15"></path><path d="M21.94,60.02v-3.45"></path><path d="M36.89,60.02v-3.45"></path><path fill="#FFF" d="M45.51,84.75l1.94819e-08,-6.69423e-06c0.0055272,-1.89985 -1.53013,-3.44447 -3.42998,-3.44999c-0.00667637,-1.94234e-05 -0.0133528,-1.94104e-05 -0.0200292,3.89769e-08h-4.6v3.45Z"></path><path fill="#FFF" d="M38.61,84.75l1.94819e-08,-6.69423e-06c0.0055272,-1.89985 -1.53013,-3.44447 -3.42998,-3.44999c-0.00667637,-1.94234e-05 -0.0133528,-1.94104e-05 -0.0200292,3.89769e-08h-4.6v2.3l-7.30163e-09,-8.5063e-07c0.00543214,0.632864 0.517136,1.14457 1.15,1.15Z"></path><path fill="#FFF" d="M28.84,47.37l-2.70044e-07,5.04066e-10c-1.15531,0.00215652 -2.30294,0.187803 -3.4,0.55l-6.21107e-08,-5.1844e-07c0.262782,2.19345 2.25396,3.75857 4.44741,3.49579c1.67542,-0.200721 3.04469,-1.43124 3.42259,-3.07579l-3.39536e-07,-1.54432e-07c-1.40375,-0.638473 -2.92787,-0.969209 -4.47,-0.97Z"></path><path fill="#FFF" d="M56.44,65.2h-14.38l7.13134e-09,6.12204e-11c-0.632864,-0.0054326 -1.14457,-0.517136 -1.15,-1.15v-1.15h16.68v1.15l7.21939e-09,-8.41048e-07c-0.00543215,0.632864 -0.517136,1.14457 -1.15,1.15Z"></path><use xlink:href="#j"></use><path fill="#D6DAFF" d="M51.3262,56.5038c0.671702,0.671702 0.671702,1.76075 0,2.43245c-0.671702,0.671702 -1.76075,0.671702 -2.43245,0c-0.671702,-0.671702 -0.671702,-1.76075 0,-2.43245c0.671702,-0.671702 1.76075,-0.671702 2.43245,0"></path><path d="M50.11,54.85l1.15,-1.15"></path><path fill="#D6DAFF" d="M35.74,81.3h-5.18l-1.37,-7.3l-5.34771e-08,-2.80997e-07c-0.206522,-1.08517 -1.15535,-1.87027 -2.26,-1.87h-2.69l-1.00536e-07,-1.42109e-14c-1.27025,-5.55246e-08 -2.3,-1.02975 -2.3,-2.3v-2.33h8.57l-1.52395e-08,-4.59011e-12c1.6867,0.000507429 3.12726,1.21716 3.41,2.88Z"></path><path fill="#FFF" d="M67.94,66.63v0c0,0.79529 -0.64471,1.44 -1.44,1.44h-39.67l9.18386e-08,-7.67322e-09c-0.792529,0.0662167 -1.48868,-0.522576 -1.5549,-1.3151c-0.0662167,-0.792529 0.522576,-1.48868 1.3151,-1.5549c0.0797915,-0.00666667 0.16,-0.00666668 0.239792,-1.53464e-08h39.67l-1.59579e-08,3.83693e-13c0.791401,-1.90918e-05 1.4345,0.638618 1.44,1.43Z"></path><path fill="#FFF" d="M32.86,62.9l2.13163e-14,-3.4729e-07c-1.91803e-07,1.27025 1.02974,2.3 2.3,2.3h5.75v-2.3Z"></path><path fill="#FFF" d="M32,61.17h-9.2h-3.75918e-08c-0.474965,-2.07614e-08 -0.86,-0.385035 -0.86,-0.86v-0.31h-4v0.29l-2.62925e-08,1.26844e-05c-0.00558185,2.69455 2.16555,4.888 4.86001,4.90999h9.19999h-8.74228e-08c1.10457,4.82823e-08 2,-0.89543 2,-2c4.82823e-08,-1.10457 -0.89543,-2 -2,-2Z"></path><path d="M49.5,16.55v11"></path><use xlink:href="#a"></use><path fill="#D6DAFF" d="M51,30.05h-3v-1l1.42109e-14,2.26494e-07c-1.25089e-07,-0.828427 0.671573,-1.5 1.5,-1.5c0.828427,-1.25089e-07 1.5,0.671573 1.5,1.5c0,0 0,3.55271e-15 0,3.55271e-15Z"></path></g><use fill="#D6DAFF" xlink:href="#m"></use><use xlink:href="#m" stroke-linecap="round" stroke-width="1" stroke="#4550E5" fill="none" stroke-linejoin="round"></use></svg>