<?xml version="1.0" encoding="UTF-8"?><svg version="1.1" viewBox="0 0 100 112" xmlns="http://www.w3.org/2000/svg" xmlns:xlink="http://www.w3.org/1999/xlink"><!--Generated by IJSVG (https://github.com/curthard89/IJSVG)--><defs><path d="M47.09,81.59h7v3h-7Z" id="d"></path><path d="M67.09,76.59h-33v-17l3.55271e-14,4.52987e-07c-2.50178e-07,-1.65685 1.34315,-3 3,-3h27h-1.31134e-07c1.65685,-7.24234e-08 3,1.34315 3,3Z" id="e"></path><path d="M40,35.81l-4.5,5.46l1.05081e-07,-1.28969e-07c-0.697707,0.856317 -0.569128,2.1161 0.287189,2.81381c0.851078,0.693438 2.10203,0.571232 2.80281,-0.273809l1.2,-1.45l-1.09428e-07,-5.18853e-07c1.0729,5.08715 5.56094,8.72847 10.76,8.73h-8.74228e-08c1.10457,4.82823e-08 2,-0.89543 2,-2c4.82823e-08,-1.10457 -0.89543,-2 -2,-2l3.90218e-07,-7.87281e-11c-3.34604,0.000675157 -6.22469,-2.36677 -6.87,-5.65l2.05,1.69l1.85682e-07,1.52524e-07c0.851194,0.699192 2.10752,0.578477 2.81,-0.27l-1.95942e-08,2.36462e-08c0.295973,-0.357178 0.458586,-0.806131 0.46,-1.27l4.09415e-08,-1.05654e-06c0.0235334,-0.607309 -0.230361,-1.19237 -0.690001,-1.59l-5.45,-4.5l1.83338e-08,1.51787e-08c-0.850821,-0.704398 -2.11158,-0.585699 -2.81597,0.265122c-0.00134451,0.001624 -0.00268646,0.00325012 -0.00402583,0.00487836Z" id="b"></path><path d="M70.32,19.82l2.35753e-07,-9.71395e-07c0.127964,-0.527261 0.195069,-1.06745 0.2,-1.61l2.29119e-07,-5.66375e-05c0.0154448,-3.82178 -3.0702,-6.93246 -6.89198,-6.94791c-1.5318,-0.00619043 -3.02237,0.496049 -4.23807,1.428l4.30106e-07,5.05899e-07c-4.97246,-5.8487 -13.7447,-6.55902 -19.5934,-1.58656c-3.10547,2.64021 -4.89555,6.51046 -4.89656,10.5866c0,0 0,0 0,0.08l-6.70669e-08,-9.7621e-09c-0.288388,-0.041977 -0.578793,-0.0686809 -0.87,-0.08l3.87491e-07,2.13163e-14c-3.83838,-2.8979e-07 -6.95,3.11162 -6.95,6.95c-2.8979e-07,3.83838 3.11162,6.95 6.95,6.95c1.12745e-07,1.42109e-14 1.40931e-07,1.42109e-14 2.53677e-07,1.42109e-14h31.28l-2.81168e-07,2.40348e-10c4.79383,-0.0040978 8.67667,-3.89359 8.67258,-8.68742c-0.00240793,-2.81693 -1.37165,-5.45752 -3.67258,-7.08258Z" id="a"></path><path d="M50.59,29.09l-8.74228e-08,3.55271e-15c-1.10457,4.82823e-08 -2,0.895431 -2,2c4.82823e-08,1.10457 0.895431,2 2,2l-1.73915e-07,-1.64363e-10c3.33919,0.0031557 6.21124,2.36444 6.86,5.64l-2.05,-1.73l-8.05076e-08,-6.55957e-08c-0.856317,-0.697707 -2.1161,-0.569128 -2.81381,0.28719c-0.693438,0.851078 -0.571231,2.10203 0.273809,2.80281l5.45,4.5l1.22459e-07,1.01384e-07c0.850821,0.704398 2.11158,0.585699 2.81597,-0.265122c0.00134451,-0.001624 0.00268646,-0.00325012 0.00402583,-0.00487836l4.5,-5.46l-2.29434e-08,2.76879e-08c0.295973,-0.357178 0.458585,-0.806131 0.46,-1.27l5.80879e-09,2.31043e-06c-0.00149938,-0.596511 -0.269184,-1.16122 -0.729998,-1.54l1.83338e-08,1.51787e-08c-0.850821,-0.704398 -2.11158,-0.585699 -2.81597,0.265122c-0.00134451,0.001624 -0.00268646,0.00325012 -0.00402583,0.00487836l-1.19,1.45l4.94718e-07,2.29289e-06c-1.09333,-5.06728 -5.57612,-8.68351 -10.76,-8.68Z" id="c"></path></defs><path d="M78.8743,29.8057c15.621,15.621 15.621,40.9476 0,56.5685c-15.621,15.621 -40.9476,15.621 -56.5685,0c-15.621,-15.621 -15.621,-40.9476 -7.10543e-15,-56.5685c15.621,-15.621 40.9476,-15.621 56.5685,-7.10543e-15" fill="#F0F2FF"></path><path fill="#D6DAFF" d="M59.0753,86.9293c4.68629,0.585786 4.68629,1.53553 0,2.12132c-4.68629,0.585786 -12.2843,0.585786 -16.9706,0c-4.68629,-0.585786 -4.68629,-1.53553 0,-2.12132c4.68629,-0.585786 12.2843,-0.585786 16.9706,0"></path><use xlink:href="#a" fill="#FFF"></use><use fill="none" stroke="#4550E5" stroke-linecap="round" stroke-linejoin="round" stroke-width="1" xlink:href="#a"></use><use xlink:href="#b" fill="#D6DAFF"></use><use fill="none" stroke="#4550E5" stroke-linecap="round" stroke-linejoin="round" stroke-width="1" xlink:href="#b"></use><use xlink:href="#c" fill="#D6DAFF"></use><use fill="none" stroke="#4550E5" stroke-linecap="round" stroke-linejoin="round" stroke-width="1" xlink:href="#c"></use><use xlink:href="#d" fill="#FFF"></use><use fill="none" stroke="#4550E5" stroke-linecap="round" stroke-linejoin="round" stroke-width="1" xlink:href="#d"></use><use xlink:href="#e" fill="#D6DAFF"></use><path fill="#FFF" stroke="#4550E5" stroke-linecap="round" stroke-linejoin="round" stroke-width="1" d="M56.09,84.59h-11h-8.74228e-08c-1.10457,4.82823e-08 -2,0.895431 -2,2c0,0 0,0 0,0v1h15v-1v-8.74228e-08c0,-1.10457 -0.895431,-2 -2,-2c-2.70922e-08,0 -6.03306e-08,0 -8.74228e-08,0Z"></path><path d="M64.09,81.59h-27h-1.31134e-07c-1.65685,-7.24234e-08 -3,-1.34315 -3,-3c0,0 0,0 0,0v-2h33v2v1.31134e-07c0,1.65685 -1.34315,3 -3,3c-4.06383e-08,0 -9.04959e-08,0 -1.31134e-07,0Z" stroke-linecap="round" stroke-width="1" stroke="#4550E5" fill="#FFF" stroke-linejoin="round"></path><path fill="#FFF" d="M34.09,76.59v-17l3.55271e-14,4.52987e-07c-2.50178e-07,-1.65685 1.34315,-3 3,-3h17Z"></path><use xlink:href="#e" stroke-linecap="round" stroke-width="1" stroke="#4550E5" fill="none" stroke-linejoin="round"></use><path fill="none" stroke="#4550E5" stroke-width="1" d="M50.9436,78.7364c0.195262,0.195262 0.195262,0.511845 0,0.707107c-0.195262,0.195262 -0.511845,0.195262 -0.707107,0c-0.195262,-0.195262 -0.195262,-0.511845 0,-0.707107c0.195262,-0.195262 0.511845,-0.195262 0.707107,0"></path></svg>