<?xml version="1.0" encoding="UTF-8"?><svg version="1.1" viewBox="0 0 100 112" xmlns="http://www.w3.org/2000/svg" xmlns:xlink="http://www.w3.org/1999/xlink"><!--Generated by IJSVG (https://github.com/curthard89/IJSVG)--><defs><path d="M21.65,75.27c-0.27614,0 -0.5,-0.22386 -0.5,-0.5v-1.17c0,-0.27614 0.22386,-0.5 0.5,-0.5h13.49c0.27614,0 0.5,0.22386 0.5,0.5v1.17c0,0.27614 -0.22386,0.5 -0.5,0.5Z" id="b"></path><path d="M21.29,39h41.83l-4.76529e-08,4.42029e-11c1.12002,-0.00103895 2.04177,0.881016 2.09,2v4.41h-46v-4.41l-4.20975e-08,9.76865e-07c0.0480554,-1.11512 0.963849,-1.99569 2.08,-2Z" id="a"></path><path d="M68.71,33.46l-1.29,4.51h9.02v-4.51h-7.73Z" id="c"></path></defs><path d="M90.34,56l1.75431e-07,0.00374627c-1.42109e-14,-22.0914 -17.9086,-40 -40,-40c-22.0914,7.10543e-15 -40,17.9086 -40,40c0,5.68809 1.21314,11.3108 3.55846,16.4928h72.8715l1.09097e-06,-2.39565e-06c2.35868,-5.17941 3.57619,-10.8054 3.57,-16.4966Z" fill="#F0F2FF"></path><path fill="none" stroke="#4550E5" stroke-linecap="round" stroke-linejoin="round" stroke-width="1" d="M10.84,72.5h78"></path><g stroke-linecap="round" stroke-width="1" stroke="#4550E5" fill="none" stroke-linejoin="round"><path d="M6.34,72.5h2.5"></path><path d="M90.84,72.5h2.5"></path></g><path fill="#F0F2FF" d="M85.0572,80.0345c5.28379,0.632649 5.28379,1.65838 0,2.29103c-5.28379,0.632649 -13.8505,0.632649 -19.1343,0c-5.28379,-0.632649 -5.28379,-1.65838 0,-2.29103c5.28379,-0.632649 13.8505,-0.632649 19.1343,0"></path><path d="M41.7572,80.0345c5.28379,0.632649 5.28379,1.65838 0,2.29103c-5.28379,0.632649 -13.8505,0.632649 -19.1343,0c-5.28379,-0.632649 -5.28379,-1.65838 -3.55271e-15,-2.29103c5.28379,-0.632649 13.8505,-0.632649 19.1343,0" fill="#F0F2FF"></path><path fill="#FFF" stroke="#4550E5" stroke-linecap="round" stroke-linejoin="round" stroke-width="1" d="M19.2,45.45h46v25.19v0c0,1.03277 -0.837228,1.87 -1.87,1.87c0,0 0,0 0,0h-42.26h-8.17403e-08c-1.03277,-4.51439e-08 -1.87,-0.837228 -1.87,-1.87c0,0 0,-1.42109e-14 0,-1.42109e-14v-25.19Z"></path><use xlink:href="#a" fill="#FFF"></use><use fill="none" stroke="#4550E5" stroke-linecap="round" stroke-linejoin="round" stroke-width="1" xlink:href="#a"></use><g stroke-linecap="round" stroke-width="1" stroke="#4550E5" fill="#D6DAFF" stroke-linejoin="round"><path d="M23.2037,41.4363c0.421766,0.421766 0.421766,1.10558 0,1.52735c-0.421766,0.421766 -1.10558,0.421766 -1.52735,0c-0.421766,-0.421766 -0.421766,-1.10558 0,-1.52735c0.421766,-0.421766 1.10558,-0.421766 1.52735,0"></path><path d="M27.5337,41.4363c0.421766,0.421766 0.421766,1.10558 0,1.52735c-0.421766,0.421766 -1.10558,0.421766 -1.52735,0c-0.421766,-0.421766 -0.421766,-1.10558 0,-1.52735c0.421766,-0.421766 1.10558,-0.421766 1.52735,0"></path><path d="M31.8637,41.4363c0.421766,0.421766 0.421766,1.10558 0,1.52735c-0.421766,0.421766 -1.10558,0.421766 -1.52735,0c-0.421766,-0.421766 -0.421766,-1.10558 0,-1.52735c0.421766,-0.421766 1.10558,-0.421766 1.52735,0"></path></g><g transform="matrix(1,0,0,1,60.77,1.65)"><use fill="#FFF" stroke="#4550E5" stroke-linejoin="round" stroke-width="1" transform="matrix(0.707107,0.707107,-0.707107,0.707107,0,0)" xlink:href="#b"></use></g><g transform="matrix(1,0,0,1,63.85,-5.8)"><path fill="#FFF" stroke="#4550E5" stroke-linejoin="round" stroke-width="1" d="M32.19,75.27c-0.27614,0 -0.5,-0.22386 -0.5,-0.5v-1.17c0,-0.27614 0.22386,-0.5 0.5,-0.5h13.49c0.27614,0 0.5,0.22386 0.5,0.5v1.17c0,0.27614 -0.22386,0.5 -0.5,0.5Z" transform="matrix(0.707107,0.707107,-0.707107,0.707107,0,0)"></path></g><g transform="matrix(1,0,0,1,100.93,106.55)"><use fill="#FFF" stroke="#4550E5" stroke-linejoin="round" stroke-width="1" transform="matrix(-0.707107,0.707107,-0.707107,-0.707107,0,0)" xlink:href="#b"></use></g><g stroke-width="1" stroke="#4550E5" fill="#FFF" stroke-linejoin="round"><path d="M33.08,80.1c-0.193298,0 -0.35,-0.156702 -0.35,-0.35v-14.46c0,-0.193298 0.156702,-0.35 0.35,-0.35h1.47c0.193298,0 0.35,0.156702 0.35,0.35v14.46c0,0.193298 -0.156702,0.35 -0.35,0.35Z"></path><path d="M22.25,80.1c-0.193298,0 -0.35,-0.156702 -0.35,-0.35v-14.46c0,-0.193298 0.156702,-0.35 0.35,-0.35h1.47c0.193298,0 0.35,0.156702 0.35,0.35v14.46c0,0.193298 -0.156702,0.35 -0.35,0.35Z"></path><path d="M24.57,68.73c-0.27614,0 -0.5,-0.22386 -0.5,-0.5v-1.17c0,-0.27614 0.22386,-0.5 0.5,-0.5h7.66c0.27614,0 0.5,0.22386 0.5,0.5v1.17c0,0.27614 -0.22386,0.5 -0.5,0.5Z"></path><path fill="#D6DAFF" d="M23.99,62.23c-0.55228,0 -1,-0.44772 -1,-1v-10.99c0,-0.55228 0.44772,-1 1,-1h9.37c0.55228,0 1,0.44772 1,1v10.99c0,0.55228 -0.44772,1 -1,1Z"></path><path fill="#D6DAFF" d="M42.93,65.48h15.86h-4.37114e-08c0.552285,-2.41411e-08 1,0.447715 1,1v6h-17.86v-6l1.42109e-14,-1.07284e-07c8.33927e-08,-0.552285 0.447715,-1 1,-1Z"></path><path fill="#D6DAFF" stroke-linecap="round" d="M41.93,60.07h17.86v2.71h-17.86Z"></path></g><use fill="#FFF" xlink:href="#c"></use><g stroke-linecap="round" stroke-width="1" stroke="#4550E5" fill="#D6DAFF" stroke-linejoin="round"><path d="M45.5,33.46c-0.55228,0 -1,-0.44772 -1,-1v-0.58c0,-0.55228 0.44772,-1 1,-1h40.9c0.55228,0 1,0.44772 1,1v0.58c0,0.55228 -0.44772,1 -1,1Z"></path><path d="M70,40.55h5.16v39.33h-5.16Z"></path><path d="M75.15,30.88h-5.15l2.06,-6.7l3.15832e-09,-7.74248e-09c0.112644,-0.276142 0.427818,-0.408684 0.703961,-0.296039c0.134474,0.054855 0.241184,0.161565 0.296039,0.296039Z"></path><path fill="none" d="M45.58,30.88l27.07,-6.76"></path><path fill="none" d="M84.18,30.88l-11.53,-6.76"></path><path d="M68,40.55h7.9h-2.36041e-08c0.298234,1.30362e-08 0.54,-0.241766 0.54,-0.54c0,0 0,-7.10543e-15 0,-7.10543e-15v-2.01h-9v2l-1.26651e-08,6.59148e-07c-0.00572915,0.298179 0.231348,0.544545 0.529527,0.550274c0.0101585,0.000195184 0.0203205,0.000103622 0.0304739,-0.000274576Z"></path><use fill="none" xlink:href="#c"></use><path d="M48.37,33.46h5.16v2.58h-5.16Z"></path><path fill="#FFF" d="M52.28,49.45l5.82311e-10,-3.87603e-05c0,0.712447 -0.577553,1.29 -1.29,1.29c-0.712447,0 -1.29,-0.577553 -1.29,-1.29c0,-0.712447 0.577553,-1.29 1.29,-1.29c0.00332045,0 0.00664089,1.28202e-05 0.00996124,3.84604e-05l1.02976e-08,7.95168e-11c0.708554,0.00547155 1.28006,0.581425 1.28004,1.29Z"></path><path fill="none" d="M70,52.79l5.15,5.16"></path><path fill="none" d="M75.15,52.79l-5.15,5.16"></path><path fill="none" d="M70,58.59l5.15,5.16"></path><path fill="none" d="M75.15,58.59l-5.15,5.16"></path><path fill="none" d="M70,63.89l5.15,5.16"></path><path fill="none" d="M75.15,63.89l-5.15,5.16"></path><path fill="none" d="M70,69.31l5.15,5.15"></path><path fill="none" d="M75.15,69.31l-5.15,5.15"></path><path fill="none" d="M70,46.99l5.15,5.16"></path><path fill="none" d="M75.15,46.99l-5.15,5.16"></path><path fill="none" d="M70,41.19l5.15,5.16"></path><path fill="none" d="M75.15,41.19l-5.15,5.16"></path></g><g transform="matrix(1,0,0,1,151.25,157.59)"><path fill="#FFF" stroke="#4550E5" stroke-linecap="round" stroke-linejoin="round" stroke-width="1" d="M66.15,77.71h18.95v1.67v0c0,0.276142 -0.223858,0.5 -0.5,0.5h-17.95h-2.18557e-08c-0.276142,-1.20706e-08 -0.5,-0.223858 -0.5,-0.5c0,0 0,0 0,0v-1.67Z" transform="matrix(-1,1.22465e-16,-1.22465e-16,-1,0,0)"></path></g><g transform="matrix(1,0,0,1,144.75,153.26)"><path fill="#FFF" stroke="#4550E5" stroke-linecap="round" stroke-linejoin="round" stroke-width="1" d="M68.86,75.55h7v1.67v0c0,0.276142 -0.223858,0.5 -0.5,0.5h-6h-2.18557e-08c-0.276142,-1.20706e-08 -0.5,-0.223858 -0.5,-0.5c0,0 0,0 0,0v-1.67Z" transform="matrix(-1,1.22465e-16,-1.22465e-16,-1,0,0)"></path></g><g transform="matrix(1,0,0,1,162.61,153.26)"><path fill="#D6DAFF" stroke="#4550E5" stroke-linecap="round" stroke-linejoin="round" stroke-width="1" d="M78.6,75.55h5.41v2.17h-5.41Z" transform="matrix(-1,1.22465e-16,-1.22465e-16,-1,0,0)"></path></g><g transform="matrix(1,0,0,1,162.61,148.93)"><path fill="#D6DAFF" stroke="#4550E5" stroke-linecap="round" stroke-linejoin="round" stroke-width="1" d="M78.6,73.38h5.41v2.17h-5.41Z" transform="matrix(-1,1.22465e-16,-1.22465e-16,-1,0,0)"></path></g><g transform="matrix(1,0,0,1,162.61,144.6)"><path fill="#D6DAFF" stroke="#4550E5" stroke-linecap="round" stroke-linejoin="round" stroke-width="1" d="M78.6,71.22h5.41v2.17h-5.41Z" transform="matrix(-1,1.22465e-16,-1.22465e-16,-1,0,0)"></path></g><path d="M50.99,50.74l3.79,3.37h-7.57l3.78,-3.37Z" stroke-linecap="round" stroke-width="1" stroke="#4550E5" fill="none" stroke-linejoin="round"></path><g transform="matrix(1,0,0,1,101.99,110.93)"><path fill="#D6DAFF" stroke="#4550E5" stroke-linecap="round" stroke-linejoin="round" stroke-width="1" d="M43.82,54.11h14.35v2.71h-14.35Z" transform="matrix(-1,1.22465e-16,-1.22465e-16,-1,0,0)"></path></g><path d="M50.99,48.16v-12.12" stroke-linecap="round" stroke-width="1" stroke="#4550E5" fill="none" stroke-linejoin="round"></path></svg>