<?xml version="1.0" encoding="UTF-8"?><svg version="1.1" viewBox="0 0 100 112" xmlns="http://www.w3.org/2000/svg" xmlns:xlink="http://www.w3.org/1999/xlink"><!--Generated by IJSVG (https://github.com/curthard89/IJSVG)--><defs><path d="M58.28,42.19l-1.07037e-08,-2.96981e-06c-0.00548647,-1.52203 -1.23797,-2.75451 -2.76,-2.76h-1.52l2.05239e-07,3.80898e-07c-3.43714,-6.37889 -11.3946,-8.76365 -17.7735,-5.3265c-2.25799,1.21667 -4.10983,3.06852 -5.3265,5.3265h-1.6l4.80584e-09,-1.7323e-11c-1.52203,0.00548484 -2.75452,1.23797 -2.76,2.76v35.88l2.84217e-14,-4.16748e-07c-2.30164e-07,1.52431 1.23569,2.76 2.76,2.76c0,0 7.10543e-15,0 7.10543e-15,0h26.22h-1.20643e-07c1.52431,6.66295e-08 2.76,-1.23569 2.76,-2.76c0,0 0,0 0,0Zm-11,-2.76h-9.7l5.35403e-08,-7.10543e-15c-0.762153,5.75409e-08 -1.38,-0.617847 -1.38,-1.38c-5.75409e-08,-0.762153 0.617847,-1.38 1.38,-1.38c3.35802e-08,0 6.71604e-08,-7.10543e-15 1.00741e-07,-7.10543e-15h9.66l-9.67488e-09,7.10543e-15c0.762153,-3.33148e-08 1.38,0.617847 1.38,1.38c3.33148e-08,0.762153 -0.617847,1.38 -1.38,1.38c-3.35802e-08,7.10543e-15 -6.71604e-08,7.10543e-15 -1.00741e-07,7.10543e-15Z" id="a"></path><path d="M31.83,76.69c-0.635122,0 -1.15,-0.514878 -1.15,-1.15v-30.82c0,-0.635122 0.514878,-1.15 1.15,-1.15h21.16c0.635122,0 1.15,0.514878 1.15,1.15v30.82c0,0.635122 -0.514878,1.15 -1.15,1.15Z" id="b"></path></defs><path d="M78.2843,27.7157c15.621,15.621 15.621,40.9476 0,56.5685c-15.621,15.621 -40.9476,15.621 -56.5685,0c-15.621,-15.621 -15.621,-40.9476 -7.10543e-15,-56.5685c15.621,-15.621 40.9476,-15.621 56.5685,-7.10543e-15" fill="#F0F2FF"></path><path fill="#D6DAFF" d="M52.1681,86.9738c5.38924,0.671702 5.38924,1.76075 0,2.43245c-5.38924,0.671702 -14.1269,0.671702 -19.5161,0c-5.38924,-0.671702 -5.38924,-1.76075 0,-2.43245c5.38924,-0.671702 14.1269,-0.671702 19.5161,0"></path><use xlink:href="#a" fill="#FFF"></use><use fill="#D6DAFF" xlink:href="#b"></use><g stroke-width="1" stroke="#4550E5" fill="none" stroke-linejoin="round"><use xlink:href="#b"></use><use xlink:href="#a"></use><path stroke-linecap="round" d="M36.2,65.65h12.42"></path><path stroke-linecap="round" d="M38.96,68.41h6.9"></path><path d="M41.72,36.67v0v-1.38l1.27898e-13,1.66095e-06c-9.17319e-07,-6.07513 4.92487,-11 11,-11v0l-4.80825e-07,1.42109e-14c6.07513,-2.65552e-07 11,4.92487 11,11v25.53l7.10543e-14,-7.2931e-07c-4.02787e-07,2.66754 2.16246,4.83 4.83,4.83v0h-2.11126e-07c2.66754,1.16602e-07 4.83,-2.16246 4.83,-4.83v-24.15v0c0,-4.57292 -3.70708,-8.28 -8.28,-8.28c0,0 0,0 0,0h-11l-2.13075e-07,4.9387e-10c-3.2996,0.00764793 -6.28051,1.97136 -7.59,5"></path><path fill="#FFF" stroke-linecap="round" d="M30.68,71.86h23.46v3.83v0c0,0.552285 -0.447715,1 -1,1h-21.46h-4.37114e-08c-0.552285,-2.41411e-08 -1,-0.447715 -1,-1c0,0 0,0 0,0v-3.83Z"></path></g><path fill="#FFF" stroke="#4550E5" stroke-width="1" d="M39.65,51.16l2.84217e-14,4.16748e-07c2.30164e-07,1.52431 1.23569,2.76 2.76,2.76c1.52431,-2.30164e-07 2.76,-1.23569 2.76,-2.76v-1.38h7.10543e-15c-7.10543e-15,-1.52431 -1.23569,-2.76 -2.76,-2.76c-1.52431,7.10543e-15 -2.76,1.23569 -2.76,2.76Z"></path><g stroke-width="1" fill="none" stroke="#4550E5"><path d="M44.68,48.18l1.16092e-07,-1.29989e-07c-1.2525,1.40244 -3.23246,1.90138 -5,1.26"></path><path fill="#FFF" stroke-linejoin="round" d="M36.2,62.78v-0.35l7.10543e-14,-8.04688e-07c5.17869e-07,-3.42969 2.78031,-6.21 6.21,-6.21c3.42969,5.17869e-07 6.21,2.78031 6.21,6.21v0.35Z"></path></g></svg>