<?xml version="1.0" encoding="UTF-8"?><svg version="1.1" viewBox="0 0 100 112" xmlns="http://www.w3.org/2000/svg" xmlns:xlink="http://www.w3.org/1999/xlink"><!--Generated by IJSVG (https://github.com/curthard89/IJSVG)--><defs><path d="M50,27.5l19.49,6.8l-2.56715e-07,-9.07624e-08c1.19918,0.423975 2.00067,1.55807 2,2.83v20.87c0.01,14.5 -21.49,22.5 -21.49,22.5c0,0 -21.5,-8 -21.5,-22.5v-20.87l-5.47466e-08,-0.000108148c-0.000620947,-1.27193 0.800903,-2.406 2.0001,-2.82993Z" id="a"></path><path d="M60.253,42.747c5.6626,5.6626 5.6626,14.8435 0,20.5061c-5.6626,5.6626 -14.8435,5.6626 -20.5061,0c-5.6626,-5.6626 -5.6626,-14.8435 -7.10543e-15,-20.5061c5.6626,-5.6626 14.8435,-5.6626 20.5061,-7.10543e-15" id="b"></path><path d="M44.5,62.5c-0.55228,0 -1,-0.44772 -1,-1v-10c0,-0.55228 0.44772,-1 1,-1h11c0.55228,0 1,0.44772 1,1v10c0,0.55228 -0.44772,1 -1,1Z" id="c"></path></defs><path d="M78.2843,27.7157c15.621,15.621 15.621,40.9476 0,56.5685c-15.621,15.621 -40.9476,15.621 -56.5685,0c-15.621,-15.621 -15.621,-40.9476 -7.10543e-15,-56.5685c15.621,-15.621 40.9476,-15.621 56.5685,-7.10543e-15" fill="#F0F2FF"></path><use fill="#FFF" xlink:href="#a"></use><use xlink:href="#a" stroke-linecap="round" stroke-width="1" stroke="#4550E5" fill="none" stroke-linejoin="round"></use><use fill="#D6DAFF" xlink:href="#b"></use><use xlink:href="#b" stroke-linecap="round" stroke-width="1" stroke="#4550E5" fill="none" stroke-linejoin="round"></use><use fill="#FFF" xlink:href="#c"></use><g stroke-linecap="round" stroke-width="1" stroke="#4550E5" fill="#FFF" stroke-linejoin="round"><path d="M55.5,48v0c0,-3.03757 -2.46243,-5.5 -5.5,-5.5c-3.03757,0 -5.5,2.46243 -5.5,5.5v2.5h3v-2.5l2.84217e-14,3.77489e-07c-2.08482e-07,-1.38071 1.11929,-2.5 2.5,-2.5c1.38071,-2.08482e-07 2.5,1.11929 2.5,2.5c0,0 0,0 0,0v2.5h3Z"></path><use fill="none" xlink:href="#c"></use><path fill="#D6DAFF" d="M51.5,56l4.44207e-08,-8.31765e-06c0.00442188,-0.828415 -0.663557,-1.50356 -1.49197,-1.50799c-0.828415,-0.00442188 -1.50356,0.663557 -1.50799,1.49197c-0.00229321,0.429622 0.179742,0.839604 0.499963,1.12603v1.38999l1.42109e-14,1.50996e-07c8.33927e-08,0.552285 0.447715,1 1,1c0.552285,-8.33927e-08 1,-0.447715 1,-1v-1.39l4.58272e-08,-4.09879e-08c0.31607,-0.282693 0.497719,-0.685959 0.499994,-1.11Z"></path></g><path fill="#D6DAFF" d="M58.4853,84.8393c4.68629,0.585786 4.68629,1.53553 0,2.12132c-4.68629,0.585786 -12.2843,0.585786 -16.9706,0c-4.68629,-0.585786 -4.68629,-1.53553 0,-2.12132c4.68629,-0.585786 12.2843,-0.585786 16.9706,0"></path></svg>