<?xml version="1.0" encoding="UTF-8"?><svg version="1.1" viewBox="0 0 100 112" xmlns="http://www.w3.org/2000/svg" xmlns:xlink="http://www.w3.org/1999/xlink"><!--Generated by IJSVG (https://github.com/curthard89/IJSVG)--><defs><path d="M85,35.69c-0.71,-0.28 -2.06,1.52 -3,4c-0.94,2.48 -1.17,4.73 -0.45,5l-30.89,-12c-0.71,-0.27 -0.5,-2.51 0.46,-5c0.96,-2.49 2.32,-4.28 3,-4Z" id="c"></path><path d="M81.48,44.7c-0.72,-0.28 -0.51,-2.52 0.45,-5c0.96,-2.48 2.32,-4.28 3,-4c0.68,0.28 0.51,2.51 -0.45,5l-2.25,5.79l7.88117e-08,-2.03294e-07c-0.274656,0.708472 -1.07036,1.06162 -1.78,0.79l-29.57,-11.48l9.93352e-09,3.79084e-09c-0.712064,-0.271739 -1.06902,-1.06927 -0.79728,-1.78133c0.00238134,-0.00624006 0.00480795,-0.0124628 0.00727964,-0.0186676l4,-10.3l30.91,11.99" id="b"></path><path d="M24.49,38h4.14v19.32h-4.14Z" id="d"></path><path d="M73.4,51.88h4.14v19.32h-4.14Z" id="f"></path><path d="M24.98,79.59c-0.55228,0 -1,-0.44772 -1,-1v-31.12c0,-0.55228 0.44772,-1 1,-1h46.3c0.55228,0 1,0.44772 1,1v31.12c0,0.55228 -0.44772,1 -1,1Z" id="a"></path><path d="M25.7,57.52l2.59,7.87l-8.22,2.78l-7.49848e-08,2.62428e-08c-0.289192,0.10121 -0.607222,0.079526 -0.88,-0.0600001l1.10067e-07,5.21802e-08c-0.278721,-0.132135 -0.489157,-0.375225 -0.58,-0.67l-1.87,-5.68l-4.17741e-08,-1.31029e-07c-0.191751,-0.60145 0.132655,-1.24582 0.73,-1.45Z" id="e"></path></defs><path d="M78.2843,27.7157c15.621,15.621 15.621,40.9476 0,56.5685c-15.621,15.621 -40.9476,15.621 -56.5685,0c-15.621,-15.621 -15.621,-40.9476 -7.10543e-15,-56.5685c15.621,-15.621 40.9476,-15.621 56.5685,-7.10543e-15" fill="#F0F2FF"></path><use fill="#FFF" xlink:href="#a"></use><g stroke-linecap="round" stroke-width="1" stroke="#4550E5" fill="none" stroke-linejoin="round"><use xlink:href="#a"></use><path d="M28.12,50.61h40.02v24.84h-40.02Z"></path><path d="M28.12,67.17h7.28h-4.37114e-08c0.552285,-2.41411e-08 1,0.447715 1,1v7.28h-8.28v-8.28Z"></path><path d="M49.82,67.17h11.8h-4.37114e-08c0.552285,-2.41411e-08 1,0.447715 1,1v7.28h-13.8v-7.28l1.42109e-14,1.50996e-07c-8.33927e-08,-0.552285 0.447715,-1 1,-1Z"></path><path d="M48.82,71.31h13.8"></path><path d="M28.12,58.89h40.02"></path><path d="M55.72,50.61v8.28"></path><path d="M59.86,50.61v8.28"></path></g><use fill="#FFF" xlink:href="#b"></use><use xlink:href="#b" stroke-linecap="round" stroke-width="1" stroke="#4550E5" fill="none" stroke-linejoin="round"></use><use fill="#FFF" xlink:href="#c"></use><use xlink:href="#c" stroke-linecap="round" stroke-width="1" stroke="#4550E5" fill="none" stroke-linejoin="round"></use><g transform="matrix(1,0,0,1,41.47,-4.82)"><use fill="#D6DAFF" transform="matrix(0.70723,0.706983,-0.706983,0.70723,0,0)" xlink:href="#d"></use></g><g stroke-linecap="round" stroke-width="1" stroke="#4550E5" fill="#FFF" stroke-linejoin="round"><path d="M36.8,37.42l-4.88,1.95l2.93,2.93l1.95,-4.88Z"></path><path fill="none" d="M36.8,37.42l0.98,-0.98"></path></g><g transform="matrix(1,0,0,1,44.94,3.49)"><path fill="#FFF" stroke="#4550E5" stroke-linecap="round" stroke-linejoin="round" stroke-width="1" d="M16.19,53.89h4.14v3.11v0c0,0.552285 -0.447715,1 -1,1h-2.14h-4.37114e-08c-0.552285,-2.41411e-08 -1,-0.447715 -1,-1c0,0 0,0 0,0v-3.11Z" transform="matrix(0.706736,0.707477,-0.707477,0.706736,0,0)"></path></g><g transform="matrix(1,0,0,1,41.47,-4.82)"><use fill="none" stroke="#4550E5" stroke-linecap="round" stroke-linejoin="round" stroke-width="1" transform="matrix(0.70723,0.706983,-0.706983,0.70723,0,0)" xlink:href="#d"></use></g><path d="M20.07,68.18l-1.48031e-09,4.99497e-10c-0.60179,0.203065 -1.25425,-0.120166 -1.45732,-0.721957c-0.000903573,-0.00267778 -0.00179727,-0.00535887 -0.00268108,-0.00804324l-1.87,-5.69l-3.08028e-08,-9.65148e-08c-0.191121,-0.598841 0.134004,-1.24018 0.73,-1.44l9.53,-3.23l1.83128e-07,-6.06284e-08c1.44706,-0.47908 3.00851,0.305625 3.48759,1.75269c0.000806613,0.00243638 0.00160983,0.00487388 0.00240964,0.0073125l1.29,3.93l6.98138e-09,2.08168e-08c0.240583,0.717363 -0.145923,1.49393 -0.863286,1.73451c-0.0055596,0.00186453 -0.0111311,0.00369335 -0.0167142,0.00548634Z" stroke-linecap="round" stroke-width="1" stroke="#4550E5" fill="#FFF" stroke-linejoin="round"></path><use fill="#D6DAFF" xlink:href="#e"></use><use xlink:href="#e" stroke-linecap="round" stroke-width="1" stroke="#4550E5" fill="none" stroke-linejoin="round"></use><g transform="matrix(1,0,0,1,-21.75,55.99)"><use fill="#D6DAFF" transform="matrix(0.809735,-0.586796,0.586796,0.809735,0,0)" xlink:href="#f"></use></g><g stroke-linecap="round" stroke-width="1" stroke="#4550E5" fill="#FFF" stroke-linejoin="round"><path d="M66.97,49.8l1.16,5.13l3.35,-2.43l-4.51,-2.7Z"></path><path fill="none" d="M66.97,49.8l-0.81,-1.11"></path></g><g transform="matrix(1,0,0,1,-26.01,61.83)"><path fill="#FFF" stroke="#4550E5" stroke-linecap="round" stroke-linejoin="round" stroke-width="1" d="M80.29,69h4.14v3.14v0c0,0.552285 -0.447715,1 -1,1h-2.14h-4.37114e-08c-0.552285,-2.41411e-08 -1,-0.447715 -1,-1c0,0 0,0 0,0v-3.14Z" transform="matrix(0.809837,-0.586655,0.586655,0.809837,0,0)"></path></g><g transform="matrix(1,0,0,1,-21.75,55.99)"><use fill="none" stroke="#4550E5" stroke-linecap="round" stroke-linejoin="round" stroke-width="1" transform="matrix(0.809735,-0.586796,0.586796,0.809735,0,0)" xlink:href="#f"></use></g></svg>